<svg xmlns="http://www.w3.org/2000/svg" xmlns:xlink="http://www.w3.org/1999/xlink" width="128" zoomAndPan="magnify" viewBox="0 0 96 95.999999" height="128" preserveAspectRatio="xMidYMid meet" version="1.0"><defs><g/><clipPath id="142159ca1a"><path d="M 28.875 15 L 67.125 15 L 67.125 53.25 L 28.875 53.25 Z M 28.875 15 " clip-rule="nonzero"/></clipPath></defs><rect x="-9.6" width="115.2" fill="#ffffff" y="-9.6" height="115.199999" fill-opacity="1"/><g clip-path="url(#142159ca1a)"><path fill="#e8482c" d="M 45.777344 15 L 28.875 15 L 28.875 31.90625 L 50.21875 53.25 L 67.125 36.347656 Z M 34.589844 25.222656 C 33.34375 23.976562 33.34375 21.960938 34.589844 20.714844 C 35.835938 19.46875 37.855469 19.46875 39.097656 20.710938 C 40.34375 21.960938 40.34375 23.976562 39.097656 25.222656 C 37.851562 26.46875 35.835938 26.46875 34.589844 25.222656 Z M 45.464844 39.480469 L 38.703125 32.722656 L 39.832031 31.59375 L 46.59375 38.355469 Z M 53.351562 40.609375 L 42.085938 29.339844 L 43.210938 28.210938 L 54.480469 39.480469 Z M 56.730469 37.226562 L 45.460938 25.957031 L 46.589844 24.832031 L 57.859375 36.101562 Z M 56.730469 37.226562 " fill-opacity="1" fill-rule="nonzero"/></g><g fill="#333333" fill-opacity="1"><g transform="translate(22.00657, 80.581493)"><g><path d="M 6.46875 0 L 3.625 0 L 3.625 -14.375 L 0.3125 -14.375 L 0.3125 -16.90625 L 6.46875 -16.90625 Z M 6.46875 0 "/></g></g></g><g fill="#333333" fill-opacity="1"><g transform="translate(31.348977, 80.581493)"><g><path d="M 6.46875 0 L 3.625 0 L 3.625 -14.375 L 0.3125 -14.375 L 0.3125 -16.90625 L 6.46875 -16.90625 Z M 6.46875 0 "/></g></g></g><g fill="#333333" fill-opacity="1"><g transform="translate(40.691384, 80.581493)"><g><path d="M 1.546875 -9.6875 C 1.835938 -9.988281 2.195312 -10.140625 2.625 -10.140625 C 3.0625 -10.140625 3.425781 -9.988281 3.71875 -9.6875 C 4.007812 -9.394531 4.15625 -9.023438 4.15625 -8.578125 C 4.15625 -8.109375 4.007812 -7.71875 3.71875 -7.40625 C 3.425781 -7.101562 3.0625 -6.953125 2.625 -6.953125 C 2.195312 -6.953125 1.835938 -7.101562 1.546875 -7.40625 C 1.253906 -7.71875 1.109375 -8.109375 1.109375 -8.578125 C 1.109375 -9.023438 1.253906 -9.394531 1.546875 -9.6875 Z M 1.546875 -2.515625 C 1.835938 -2.816406 2.195312 -2.96875 2.625 -2.96875 C 3.0625 -2.96875 3.425781 -2.816406 3.71875 -2.515625 C 4.007812 -2.222656 4.15625 -1.851562 4.15625 -1.40625 C 4.15625 -0.9375 4.007812 -0.546875 3.71875 -0.234375 C 3.425781 0.0664062 3.0625 0.21875 2.625 0.21875 C 2.195312 0.21875 1.835938 0.0664062 1.546875 -0.234375 C 1.253906 -0.546875 1.109375 -0.9375 1.109375 -1.40625 C 1.109375 -1.851562 1.253906 -2.222656 1.546875 -2.515625 Z M 1.546875 -2.515625 "/></g></g></g><g fill="#333333" fill-opacity="1"><g transform="translate(45.809193, 80.581493)"><g><path d="M 6.953125 -17.03125 C 8.566406 -17.03125 9.867188 -16.644531 10.859375 -15.875 C 11.847656 -15.101562 12.34375 -14.070312 12.34375 -12.78125 C 12.34375 -11.300781 11.3125 -9.445312 9.25 -7.21875 L 4.859375 -2.5625 L 13.109375 -2.5625 L 13.109375 0 L 1.09375 0 L 1.09375 -2.078125 L 7.3125 -8.765625 C 8.6875 -10.171875 9.375 -11.375 9.375 -12.375 C 9.375 -13.039062 9.125 -13.566406 8.625 -13.953125 C 8.125 -14.347656 7.429688 -14.546875 6.546875 -14.546875 C 5.015625 -14.546875 3.476562 -13.835938 1.9375 -12.421875 L 0.796875 -14.609375 C 2.773438 -16.222656 4.828125 -17.03125 6.953125 -17.03125 Z M 6.953125 -17.03125 "/></g></g></g><g fill="#333333" fill-opacity="1"><g transform="translate(60.00386, 80.581493)"><g><path d="M 12.21875 -14.34375 L 4.546875 -14.34375 L 4.546875 -10.703125 L 6.859375 -10.71875 C 8.679688 -10.71875 10.144531 -10.234375 11.25 -9.265625 C 12.351562 -8.304688 12.90625 -7.078125 12.90625 -5.578125 C 12.90625 -3.859375 12.335938 -2.484375 11.203125 -1.453125 C 10.066406 -0.421875 8.546875 0.09375 6.640625 0.09375 C 5.640625 0.09375 4.597656 -0.0820312 3.515625 -0.4375 C 2.429688 -0.789062 1.46875 -1.253906 0.625 -1.828125 L 1.765625 -4.15625 C 3.179688 -2.96875 4.703125 -2.375 6.328125 -2.375 C 7.421875 -2.375 8.28125 -2.640625 8.90625 -3.171875 C 9.539062 -3.710938 9.859375 -4.457031 9.859375 -5.40625 C 9.859375 -6.257812 9.539062 -6.9375 8.90625 -7.4375 C 8.28125 -7.9375 7.429688 -8.1875 6.359375 -8.1875 C 4.765625 -8.1875 3.28125 -8.113281 1.90625 -7.96875 L 1.90625 -16.90625 L 12.203125 -16.90625 Z M 12.21875 -14.34375 "/></g></g></g></svg>