<svg xmlns="http://www.w3.org/2000/svg" xmlns:xlink="http://www.w3.org/1999/xlink" width="48" zoomAndPan="magnify" viewBox="0 0 36 36.000001" height="48" preserveAspectRatio="xMidYMid meet" version="1.0"><defs><clipPath id="65b35cccff"><path d="M 0.488281 0 L 35.511719 0 L 35.511719 35.027344 L 0.488281 35.027344 Z M 0.488281 0 " clip-rule="nonzero"/></clipPath><clipPath id="4de811800f"><path d="M 1.679688 1.191406 L 34.515625 1.191406 L 34.515625 34.03125 L 1.679688 34.03125 Z M 1.679688 1.191406 " clip-rule="nonzero"/></clipPath></defs><g clip-path="url(#65b35cccff)"><path fill="#ffffff" d="M 0.488281 0 L 35.511719 0 L 35.511719 35.027344 L 0.488281 35.027344 Z M 0.488281 0 " fill-opacity="1" fill-rule="nonzero"/></g><g clip-path="url(#4de811800f)"><path fill="#e8482c" d="M 16.1875 1.191406 L 1.679688 1.191406 L 1.679688 15.707031 L 20 34.03125 L 34.515625 19.519531 Z M 6.585938 9.96875 C 5.515625 8.898438 5.515625 7.167969 6.585938 6.097656 C 7.65625 5.03125 9.386719 5.03125 10.453125 6.097656 C 11.523438 7.167969 11.523438 8.898438 10.453125 9.96875 C 9.386719 11.035156 7.65625 11.035156 6.585938 9.96875 Z M 15.921875 22.210938 L 10.117188 16.40625 L 11.085938 15.4375 L 16.890625 21.242188 Z M 22.691406 23.175781 L 13.019531 13.503906 L 13.988281 12.535156 L 23.660156 22.210938 Z M 25.59375 20.277344 L 15.917969 10.601562 L 16.886719 9.632812 L 26.5625 19.308594 Z M 25.59375 20.277344 " fill-opacity="1" fill-rule="nonzero"/></g></svg>