<?xml version="1.0" encoding="UTF-8"?>
<svg width="44px" height="45px" viewBox="0 0 44 45" version="1.1" xmlns="http://www.w3.org/2000/svg" xmlns:xlink="http://www.w3.org/1999/xlink">
    <title>small_no_bg</title>
    <defs>
        <polygon id="path-1" points="0 0 43.7812493 0 43.7812493 43.7864587 0 43.7864587"></polygon>
    </defs>
    <g id="Page-1" stroke="none" stroke-width="1" fill="none" fill-rule="evenodd">
        <g id="Apple-TV" transform="translate(-61, -69)">
            <g id="small_no_bg" transform="translate(61.0396, 69.3885)">
                <mask id="mask-2" fill="white">
                    <use xlink:href="#path-1"></use>
                </mask>
                <g id="Path"></g>
                <path d="M19.3437493,0 L0,0 L0,19.3541667 L24.4270827,43.7864587 L43.7812493,24.4375 L19.3437493,0 Z M6.54166667,11.7031253 C5.11458267,10.2760427 5.11458267,7.96875067 6.54166667,6.54166667 C7.96874933,5.119792 10.2760413,5.119792 11.697916,6.54166667 C13.125,7.96875067 13.125,10.2760427 11.697916,11.7031253 C10.2760413,13.125 7.96874933,13.125 6.54166667,11.7031253 Z M18.9895827,28.0260427 L11.25,20.2864587 L12.5416667,18.994792 L20.2812493,26.734376 L18.9895827,28.0260427 Z M28.015624,29.3125 L15.1197907,16.4166667 L16.4114573,15.125 L29.3072907,28.0260427 L28.015624,29.3125 Z M31.885416,25.4479173 L18.9843747,12.5468747 L20.2760413,11.255208 L33.1770827,24.1562507 L31.885416,25.4479173 Z" id="Shape" fill="#E8482C" fill-rule="nonzero" mask="url(#mask-2)"></path>
            </g>
        </g>
    </g>
</svg>